<?xml version="1.0" standalone="no"?>
<!DOCTYPE svg PUBLIC "-//W3C//DTD SVG 20010904//EN"
 "http://www.w3.org/TR/2001/REC-SVG-20010904/DTD/svg10.dtd">
<svg version="1.0" xmlns="http://www.w3.org/2000/svg"
 width="531.000000pt" height="531.000000pt" viewBox="0 0 531.000000 531.000000"
 preserveAspectRatio="xMidYMid meet">

<g transform="translate(0.000000,531.000000) scale(0.100000,-0.100000)"
fill="#000000" stroke="none">
<path d="M2424 5280 c-443 -43 -862 -190 -1220 -429 -303 -201 -557 -457 -757
-761 -89 -136 -225 -412 -277 -565 -198 -576 -198 -1164 0 -1740 52 -153 188
-429 277 -565 200 -304 469 -573 773 -773 136 -89 412 -225 565 -277 684 -234
1399 -190 2035 126 430 214 779 523 1043 924 89 136 225 413 277 565 171 502
194 1019 67 1520 -89 349 -274 719 -503 1005 -88 109 -285 306 -394 394 -375
300 -823 494 -1300 561 -136 19 -457 27 -586 15z m467 -330 c241 -25 531 -105
750 -208 388 -182 737 -493 974 -868 178 -280 297 -630 335 -979 13 -116 13
-364 0 -480 -89 -821 -601 -1529 -1346 -1864 -268 -120 -679 -212 -891 -199
l-52 3 562 982 561 983 325 2 325 3 173 295 c96 162 180 307 189 323 l15 27
-892 -2 -891 -3 -187 -320 -188 -320 378 -3 378 -2 -551 -963 c-303 -529 -555
-966 -560 -972 -12 -13 -202 26 -342 72 -368 118 -667 302 -941 578 -350 351
-568 791 -647 1305 -20 133 -17 529 5 665 81 487 284 897 621 1252 177 188
441 376 682 489 93 43 234 97 240 92 1 -2 -224 -399 -502 -883 -278 -484 -598
-1046 -711 -1250 -113 -203 -208 -373 -210 -378 -2 -4 395 -6 882 -5 l887 3
187 320 188 320 -704 3 c-387 1 -703 4 -703 7 0 5 1120 1957 1127 1965 17 19
380 25 534 10z"/>
</g>
</svg>
