<?xml version="1.0" encoding="utf-8"?>
<!-- Generator: Adobe Illustrator 24.3.0, SVG Export Plug-In . SVG Version: 6.00 Build 0)  -->
<svg version="1.1" id="Layer_1" xmlns="http://www.w3.org/2000/svg" xmlns:xlink="http://www.w3.org/1999/xlink" x="0px" y="0px"
	 viewBox="0 0 859.9 202.3" style="enable-background:new 0 0 859.9 202.3;" xml:space="preserve">
<style type="text/css">
	.st0{fill-rule:evenodd;clip-rule:evenodd;fill:#004B88;}
	.st1{fill:#004B88;}
</style>
<g>
	<path class="st0" d="M117.6,147.6l22.9-39.8l-15.5,0l7.7-13.4l36.4,0l-7.7,13.4l-13.2,0L125,148.2c25.9,0,47.1-21.2,47.1-47.1
		c0-25.8-21.2-46.9-47.1-46.9c-1.9,0-3.8,0.1-5.5,0.3L96.4,94.4H125l-7.8,13.4H80.9l29.7-51.4C91.7,62.5,78,80.3,78,101.1
		C78,124.4,95.2,144,117.6,147.6 M125,47.4c29.5,0,53.8,24.1,53.8,53.7c0,29.7-24.2,53.8-53.8,53.8c-29.6,0-53.7-24.1-53.7-53.8
		C71.3,71.5,95.4,47.4,125,47.4"/>
	<path class="st1" d="M788.6,93.1c-1.2-0.3-2.5-0.6-3.7-0.8c-1.3-0.2-2.5-0.3-3.8-0.3c-1.1,0-2.2,0.1-3.3,0.3
		c-1.1,0.2-2.1,0.5-3.1,0.9c-1,0.4-1.8,0.9-2.6,1.6c-0.8,0.7-1.4,1.5-1.8,2.4c-0.4,0.9-0.7,2-0.7,3.3c0,1.1,0.2,2,0.7,2.8
		c0.4,0.8,1,1.5,1.7,2.1c0.7,0.6,1.4,1.1,2.2,1.6c0.8,0.5,1.5,1,2.2,1.4c0.7,0.5,1.2,1,1.7,1.5c0.4,0.5,0.6,1.2,0.7,1.9
		c0,0.5-0.1,1-0.4,1.4c-0.3,0.4-0.6,0.7-1.1,0.9c-0.5,0.2-1,0.4-1.5,0.5c-0.6,0.1-1.1,0.2-1.7,0.2c-0.9,0-1.7-0.1-2.5-0.3
		c-0.8-0.2-1.5-0.4-2.1-0.8c-0.7-0.3-1.3-0.6-2-1l-1.5,5.5c1.3,0.6,2.6,1,3.9,1.2c1.4,0.2,2.7,0.4,4.1,0.4c1.2,0,2.4-0.1,3.5-0.3
		c1.1-0.2,2.2-0.5,3.2-0.9c1-0.4,1.9-1,2.7-1.7c0.8-0.7,1.4-1.5,1.8-2.6c0.4-1,0.7-2.2,0.7-3.6c0-1.1-0.2-2-0.7-2.8
		c-0.4-0.8-1-1.5-1.7-2.2c-0.7-0.6-1.4-1.2-2.1-1.7c-0.8-0.5-1.5-1-2.2-1.4c-0.7-0.5-1.2-0.9-1.7-1.4c-0.4-0.5-0.6-1-0.7-1.5
		c0-0.5,0.2-1,0.4-1.3c0.3-0.3,0.7-0.6,1.1-0.8c0.5-0.2,1-0.3,1.5-0.4c0.5-0.1,1.1-0.1,1.6-0.1c1,0,1.9,0.1,2.9,0.4
		c0.9,0.2,1.9,0.5,2.8,0.9L788.6,93.1z M746.4,103.2c0.4-1.2,1-2.3,1.6-3.2c0.6-0.9,1.4-1.7,2.3-2.2c0.9-0.5,2.1-0.8,3.5-0.8
		c1.4,0,2.5,0.4,3.3,1.1c0.7,0.8,1.1,1.9,1.1,3.3c0,0.3,0,0.6,0,0.9c0,0.3-0.1,0.6-0.1,0.9H746.4z M764.2,108c0.2-1,0.4-2,0.5-2.9
		c0.1-1,0.2-2,0.2-3c0-2.2-0.5-4.1-1.4-5.6c-0.9-1.5-2.2-2.6-3.8-3.4c-1.6-0.7-3.5-1.1-5.7-1.1c-1.7,0-3.4,0.3-4.9,0.9
		c-1.5,0.6-2.9,1.4-4.2,2.4c-1.2,1-2.3,2.2-3.2,3.6c-0.9,1.4-1.6,2.8-2.1,4.4c-0.5,1.6-0.7,3.2-0.7,4.8c0,2,0.3,3.7,0.9,5.1
		c0.6,1.5,1.5,2.7,2.6,3.6c1.1,1,2.5,1.7,4,2.1c1.6,0.5,3.3,0.7,5.2,0.7c1.4,0,2.8-0.2,4.3-0.4c1.4-0.3,2.8-0.6,4.2-1.1l0.9-5.4
		c-1.3,0.6-2.6,1.1-4,1.4c-1.4,0.3-2.7,0.5-4.2,0.5c-1.6,0-2.9-0.2-4-0.7c-1.1-0.4-1.9-1.1-2.5-2.1c-0.6-1-0.9-2.3-0.9-3.9H764.2z
		 M739.1,93c-0.9-0.3-2-0.5-3.2-0.7c-1.2-0.2-2.4-0.3-3.7-0.3c-2.4,0-4.5,0.4-6.5,1.2c-1.9,0.8-3.6,2-4.9,3.4
		c-1.4,1.5-2.4,3.2-3.1,5.2c-0.7,2-1.1,4.1-1.1,6.5c0,2.3,0.5,4.3,1.4,6c0.9,1.7,2.2,3,3.9,4c1.7,0.9,3.7,1.4,6,1.4
		c1.1,0,2.3-0.1,3.4-0.2c1.1-0.2,2.2-0.5,3.3-1l0.8-5.4c-0.6,0.3-1.2,0.5-1.9,0.7c-0.6,0.2-1.3,0.3-1.9,0.4
		c-0.6,0.1-1.2,0.2-1.8,0.2c-1.2,0-2.2-0.2-2.9-0.6c-0.8-0.4-1.4-0.9-1.8-1.6c-0.4-0.7-0.7-1.4-0.9-2.2c-0.2-0.8-0.3-1.7-0.2-2.5
		c0-1.3,0.2-2.5,0.6-3.7c0.4-1.2,0.9-2.3,1.7-3.2c0.7-1,1.6-1.7,2.7-2.3c1.1-0.6,2.3-0.9,3.7-0.9c1,0,1.9,0.1,2.7,0.3
		c0.9,0.2,1.6,0.6,2.3,1L739.1,93z M708,87.8h6.9l1.4-6.6h-6.9L708,87.8z M701.2,119.1h6.9l5.7-26.5h-6.9L701.2,119.1z M679.4,119.1
		h7.6l15.5-26.5h-7.3L684.8,112h-0.1L682,92.6h-7L679.4,119.1z M652.7,119.1h6.9l2.5-11.9c0.2-1.1,0.5-2.1,1-3.2
		c0.4-1,1-1.9,1.6-2.8c0.7-0.8,1.4-1.5,2.4-2c0.9-0.5,2-0.7,3.2-0.7c0.4,0,0.9,0,1.4,0.1c0.5,0.1,0.9,0.2,1.3,0.3l1.4-6.7
		c-0.4-0.1-0.8-0.2-1.3-0.2c-0.4,0-0.9-0.1-1.3-0.1c-0.8,0-1.6,0.2-2.4,0.5c-0.8,0.3-1.5,0.7-2.2,1.3c-0.7,0.5-1.3,1.1-1.9,1.8
		c-0.5,0.7-1,1.4-1.3,2.1h-0.1l0.9-5H658c-0.2,1.2-0.4,2.4-0.6,3.5L652.7,119.1z M632.2,103.2c0.4-1.2,1-2.3,1.6-3.2
		c0.6-0.9,1.4-1.7,2.3-2.2c0.9-0.5,2.1-0.8,3.5-0.8c1.4,0,2.5,0.4,3.3,1.1c0.7,0.8,1.1,1.9,1.1,3.3c0,0.3,0,0.6,0,0.9
		c0,0.3-0.1,0.6-0.1,0.9H632.2z M649.9,108c0.2-1,0.4-2,0.5-2.9c0.1-1,0.2-2,0.2-3c0-2.2-0.5-4.1-1.4-5.6c-0.9-1.5-2.2-2.6-3.8-3.4
		c-1.6-0.7-3.5-1.1-5.7-1.1c-1.7,0-3.4,0.3-4.9,0.9c-1.5,0.6-2.9,1.4-4.2,2.4c-1.2,1-2.3,2.2-3.2,3.6c-0.9,1.4-1.6,2.8-2.1,4.4
		c-0.5,1.6-0.7,3.2-0.7,4.8c0,2,0.3,3.7,0.9,5.1c0.6,1.5,1.5,2.7,2.6,3.6c1.1,1,2.5,1.7,4,2.1c1.6,0.5,3.3,0.7,5.2,0.7
		c1.4,0,2.8-0.2,4.3-0.4c1.4-0.3,2.8-0.6,4.2-1.1l0.9-5.4c-1.3,0.6-2.6,1.1-4,1.4c-1.4,0.3-2.7,0.5-4.2,0.5c-1.6,0-2.9-0.2-4-0.7
		c-1.1-0.4-1.9-1.1-2.5-2.1c-0.6-1-0.9-2.3-0.9-3.9H649.9z M622.8,84.2c-1.5-0.6-3-1-4.6-1.2c-1.6-0.2-3.2-0.4-4.7-0.4
		c-1.4,0-2.7,0.1-4,0.4c-1.3,0.3-2.5,0.7-3.6,1.2c-1.1,0.5-2.1,1.3-3,2.1c-0.9,0.9-1.5,1.9-2,3.1c-0.5,1.2-0.7,2.5-0.7,4
		c0,1.4,0.2,2.5,0.7,3.5c0.4,1,1,1.8,1.7,2.5c0.7,0.7,1.5,1.3,2.4,1.9c0.9,0.5,1.7,1,2.6,1.5c0.9,0.5,1.7,1,2.4,1.5
		c0.7,0.5,1.3,1.1,1.7,1.8c0.4,0.7,0.7,1.5,0.7,2.4c0,1-0.2,1.8-0.6,2.5c-0.4,0.7-0.9,1.3-1.5,1.7c-0.7,0.5-1.4,0.8-2.2,1
		c-0.8,0.2-1.6,0.3-2.5,0.3c-1,0-2-0.1-3-0.3c-1-0.2-2-0.5-2.9-0.9c-1-0.4-1.9-0.8-2.8-1.2l-1.9,6.1c1.6,0.6,3.3,1.1,5,1.4
		c1.7,0.4,3.5,0.5,5.2,0.6c1.6,0,3.1-0.1,4.6-0.4c1.5-0.3,2.8-0.7,4-1.3c1.2-0.6,2.3-1.3,3.2-2.3c0.9-0.9,1.6-2.1,2.2-3.4
		c0.5-1.3,0.8-2.9,0.8-4.6c0-1.4-0.2-2.6-0.7-3.7c-0.4-1-1-1.9-1.7-2.7c-0.7-0.8-1.5-1.4-2.4-2c-0.9-0.6-1.7-1.1-2.6-1.6
		c-0.9-0.5-1.7-1-2.4-1.5c-0.7-0.5-1.3-1.1-1.7-1.7c-0.4-0.6-0.7-1.3-0.7-2.1c0-0.8,0.2-1.4,0.6-1.9c0.4-0.5,0.9-1,1.5-1.3
		c0.6-0.3,1.3-0.5,1.9-0.7c0.7-0.1,1.4-0.2,2-0.2c0.9,0,1.8,0.1,2.6,0.2c0.9,0.2,1.7,0.4,2.5,0.7c0.8,0.3,1.6,0.6,2.3,1L622.8,84.2z
		 M554.9,92.6l4.7,27.8c-0.8,1.2-1.5,2.2-2.2,2.9c-0.7,0.7-1.3,1.2-1.9,1.5c-0.6,0.3-1.3,0.4-1.9,0.4c-0.7,0-1.3-0.1-1.7-0.2
		c-0.5-0.1-0.9-0.3-1.3-0.4l-1.5,5.2c0.8,0.2,1.7,0.4,2.6,0.5c0.8,0.1,1.7,0.2,2.6,0.2c1.4,0,2.7-0.2,3.8-0.7c1.1-0.4,2-1,2.9-1.7
		c0.8-0.7,1.5-1.5,2.2-2.4c0.6-0.9,1.2-1.8,1.7-2.7l17.9-30.5h-7.6l-10.5,19.7h-0.1L562,92.6H554.9z M541.6,102.9c0,1-0.1,2-0.3,3.1
		c-0.2,1-0.5,2-0.9,2.9c-0.4,0.9-0.9,1.8-1.5,2.5c-0.6,0.7-1.3,1.3-2.2,1.7c-0.8,0.4-1.8,0.6-2.9,0.6c-1,0-1.9-0.3-2.5-0.8
		c-0.6-0.5-1.1-1.3-1.4-2.1c-0.3-0.9-0.4-1.9-0.4-2.9c0-0.8,0.1-1.7,0.3-2.6c0.2-0.9,0.4-1.9,0.8-2.8c0.4-0.9,0.8-1.8,1.4-2.5
		c0.6-0.8,1.2-1.4,2-1.8c0.8-0.5,1.7-0.7,2.7-0.7c1.1,0,2,0.3,2.7,0.8c0.7,0.5,1.3,1.2,1.7,2C541.4,100.9,541.6,101.8,541.6,102.9z
		 M520.4,128.7c1.7,0.6,3.4,1.1,5.2,1.4c1.8,0.3,3.6,0.4,5.4,0.4c2.4,0,4.5-0.3,6.2-1c1.7-0.7,3.2-1.6,4.3-2.9
		c1.2-1.3,2.1-2.8,2.8-4.5c0.7-1.8,1.3-3.7,1.7-5.9l4.2-19.9c0.2-0.8,0.3-1.6,0.5-2.2c0.1-0.6,0.3-1.1,0.4-1.5h-6.6l-0.8,3.9
		c-0.6-0.9-1.2-1.7-2-2.4c-0.8-0.7-1.7-1.2-2.7-1.5c-1-0.4-2.1-0.5-3.3-0.5c-1.7,0-3.3,0.3-4.7,0.9c-1.4,0.6-2.7,1.4-3.7,2.4
		c-1.1,1-2,2.2-2.7,3.6c-0.7,1.3-1.3,2.8-1.7,4.3c-0.4,1.5-0.6,3.1-0.6,4.7c0,1.5,0.2,2.9,0.5,4.2c0.4,1.3,0.9,2.5,1.7,3.6
		c0.7,1.1,1.7,1.9,2.9,2.5c1.2,0.6,2.5,0.9,4.1,0.9c1.3,0,2.5-0.2,3.6-0.6c1.1-0.4,2.2-1,3.1-1.7c0.9-0.8,1.6-1.7,2.2-2.7h0.1
		c-0.3,1.2-0.6,2.4-1,3.5c-0.3,1.1-0.7,2.1-1.2,3c-0.5,0.9-1,1.7-1.7,2.4c-0.7,0.7-1.5,1.2-2.5,1.6c-1,0.4-2.2,0.6-3.7,0.6
		c-1,0-2-0.1-2.9-0.3c-0.9-0.2-1.8-0.4-2.7-0.7c-0.9-0.3-1.8-0.7-2.7-1L520.4,128.7z M506.5,92c-2.2,0-4.3,0.4-6.2,1.2
		c-1.9,0.8-3.6,1.9-5,3.3c-1.4,1.4-2.5,3.1-3.3,5c-0.8,1.9-1.2,3.9-1.2,6.2c0,2.5,0.5,4.6,1.4,6.4c1,1.8,2.3,3.2,4.1,4.2
		c1.8,1,3.9,1.5,6.5,1.5c2.3,0,4.5-0.4,6.4-1.2c1.9-0.8,3.6-1.9,5-3.3c1.4-1.4,2.5-3.1,3.2-5.1c0.8-2,1.1-4.1,1.1-6.4
		c0-1.8-0.3-3.5-0.9-4.9c-0.6-1.4-1.4-2.7-2.5-3.7c-1.1-1-2.4-1.8-3.8-2.3C510,92.2,508.3,92,506.5,92z M503.4,114.3
		c-1.3,0-2.4-0.3-3.2-0.8c-0.8-0.5-1.4-1.3-1.7-2.2c-0.4-0.9-0.5-2-0.5-3.2c0-1,0.1-2,0.3-3c0.2-1,0.5-2,1-2.9
		c0.4-0.9,1-1.8,1.6-2.5c0.7-0.7,1.4-1.3,2.3-1.8c0.9-0.4,1.9-0.7,2.9-0.7c1,0,1.9,0.2,2.5,0.5c0.7,0.3,1.2,0.8,1.6,1.4
		c0.4,0.6,0.7,1.3,0.8,2c0.2,0.8,0.3,1.6,0.2,2.4c0,0.9-0.1,1.9-0.3,2.9c-0.2,1-0.5,1.9-1,2.9c-0.4,0.9-1,1.8-1.6,2.5
		c-0.6,0.7-1.4,1.3-2.2,1.8C505.5,114.1,504.5,114.3,503.4,114.3z M475.5,119.1h6.9l8.2-38.6h-6.9L475.5,119.1z M460.8,92
		c-2.2,0-4.3,0.4-6.2,1.2c-1.9,0.8-3.6,1.9-5,3.3c-1.4,1.4-2.5,3.1-3.3,5c-0.8,1.9-1.2,3.9-1.2,6.2c0,2.5,0.5,4.6,1.4,6.4
		c1,1.8,2.3,3.2,4.1,4.2c1.8,1,3.9,1.5,6.5,1.5c2.3,0,4.5-0.4,6.4-1.2c1.9-0.8,3.6-1.9,5-3.3c1.4-1.4,2.5-3.1,3.2-5.1
		c0.8-2,1.1-4.1,1.1-6.4c0-1.8-0.3-3.5-0.9-4.9c-0.6-1.4-1.4-2.7-2.5-3.7c-1.1-1-2.4-1.8-3.8-2.3C464.3,92.2,462.6,92,460.8,92z
		 M457.7,114.3c-1.3,0-2.4-0.3-3.2-0.8c-0.8-0.5-1.4-1.3-1.7-2.2c-0.4-0.9-0.5-2-0.5-3.2c0-1,0.1-2,0.3-3c0.2-1,0.5-2,1-2.9
		c0.4-0.9,1-1.8,1.6-2.5c0.7-0.7,1.4-1.3,2.3-1.8c0.9-0.4,1.9-0.7,2.9-0.7c1,0,1.9,0.2,2.5,0.5c0.7,0.3,1.2,0.8,1.6,1.4
		c0.4,0.6,0.7,1.3,0.8,2c0.2,0.8,0.3,1.6,0.2,2.4c0,0.9-0.1,1.9-0.3,2.9c-0.2,1-0.5,1.9-1,2.9c-0.4,0.9-1,1.8-1.6,2.5
		c-0.6,0.7-1.4,1.3-2.2,1.8C459.8,114.1,458.8,114.3,457.7,114.3z M412.7,119.1h6.9l2.8-13.3c0.2-1,0.5-2,0.9-3
		c0.4-1,0.8-1.9,1.4-2.7c0.6-0.8,1.3-1.5,2.1-2c0.8-0.5,1.9-0.8,3-0.8c0.7,0,1.4,0.2,2,0.5c0.6,0.3,1,0.7,1.3,1.3
		c0.3,0.6,0.5,1.2,0.5,1.9c0,1-0.1,1.9-0.2,2.8c-0.2,0.9-0.3,1.8-0.5,2.7l-2.6,12.5h6.9l2.8-12.9c0.2-0.8,0.4-1.7,0.6-2.7
		c0.2-1,0.3-2,0.3-3c0-1.8-0.4-3.3-1.1-4.5c-0.7-1.3-1.7-2.2-3-2.9c-1.3-0.7-2.8-1-4.5-1c-1,0-1.9,0.2-2.8,0.4
		c-0.9,0.3-1.7,0.7-2.5,1.1c-0.8,0.5-1.5,1-2.1,1.6h-0.1l0.5-2.6h-6.7c-0.1,0.4-0.1,1-0.3,1.6c-0.1,0.7-0.3,1.4-0.4,2.2L412.7,119.1
		z M381.3,119.1h6.9l2.8-13.3c0.2-1,0.5-2,0.9-3c0.4-1,0.8-1.9,1.4-2.7c0.6-0.8,1.3-1.5,2.1-2c0.8-0.5,1.9-0.8,3-0.8
		c0.7,0,1.4,0.2,2,0.5c0.6,0.3,1,0.7,1.3,1.3c0.3,0.6,0.5,1.2,0.5,1.9c0,1-0.1,1.9-0.2,2.8c-0.2,0.9-0.3,1.8-0.5,2.7l-2.6,12.5h6.9
		l2.8-12.9c0.2-0.8,0.4-1.7,0.6-2.7c0.2-1,0.3-2,0.3-3c0-1.8-0.4-3.3-1.1-4.5c-0.7-1.3-1.7-2.2-3-2.9c-1.3-0.7-2.8-1-4.6-1
		c-1,0-1.9,0.2-2.8,0.4c-0.9,0.3-1.7,0.7-2.5,1.1c-0.8,0.5-1.5,1-2.1,1.6h-0.1l3.3-14.6h-6.9L381.3,119.1z M382,93
		c-0.9-0.3-2-0.5-3.2-0.7c-1.2-0.2-2.4-0.3-3.7-0.3c-2.4,0-4.5,0.4-6.5,1.2c-1.9,0.8-3.6,2-4.9,3.4c-1.4,1.5-2.4,3.2-3.1,5.2
		c-0.7,2-1.1,4.1-1.1,6.5c0,2.3,0.5,4.3,1.4,6c0.9,1.7,2.2,3,3.9,4c1.7,0.9,3.7,1.4,6,1.4c1.1,0,2.3-0.1,3.4-0.2
		c1.1-0.2,2.2-0.5,3.3-1l0.8-5.4c-0.6,0.3-1.2,0.5-1.9,0.7c-0.6,0.2-1.3,0.3-1.9,0.4c-0.6,0.1-1.2,0.2-1.8,0.2
		c-1.2,0-2.2-0.2-2.9-0.6c-0.8-0.4-1.4-0.9-1.8-1.6c-0.4-0.7-0.7-1.4-0.9-2.2c-0.2-0.8-0.3-1.7-0.2-2.5c0-1.3,0.2-2.5,0.6-3.7
		c0.4-1.2,0.9-2.3,1.7-3.2c0.7-1,1.6-1.7,2.7-2.3c1.1-0.6,2.3-0.9,3.7-0.9c1,0,1.9,0.1,2.7,0.3c0.9,0.2,1.6,0.6,2.3,1L382,93z
		 M338,103.2c0.4-1.2,1-2.3,1.6-3.2c0.6-0.9,1.4-1.7,2.3-2.2c0.9-0.5,2.1-0.8,3.5-0.8c1.4,0,2.5,0.4,3.3,1.1
		c0.7,0.8,1.1,1.9,1.1,3.3c0,0.3,0,0.6,0,0.9c0,0.3-0.1,0.6-0.1,0.9H338z M355.7,108c0.2-1,0.4-2,0.5-2.9c0.1-1,0.2-2,0.2-3
		c0-2.2-0.5-4.1-1.4-5.6c-0.9-1.5-2.2-2.6-3.8-3.4c-1.6-0.7-3.5-1.1-5.7-1.1c-1.7,0-3.4,0.3-4.9,0.9c-1.5,0.6-2.9,1.4-4.2,2.4
		c-1.2,1-2.3,2.2-3.2,3.6c-0.9,1.4-1.6,2.8-2.1,4.4c-0.5,1.6-0.7,3.2-0.7,4.8c0,2,0.3,3.7,0.9,5.1c0.6,1.5,1.5,2.7,2.6,3.6
		c1.1,1,2.5,1.7,4,2.1c1.6,0.5,3.3,0.7,5.2,0.7c1.4,0,2.8-0.2,4.3-0.4c1.4-0.3,2.8-0.6,4.2-1.1l0.9-5.4c-1.3,0.6-2.6,1.1-4,1.4
		c-1.4,0.3-2.7,0.5-4.2,0.5c-1.6,0-2.9-0.2-4-0.7c-1.1-0.4-1.9-1.1-2.5-2.1c-0.6-1-0.9-2.3-0.9-3.9H355.7z M308.4,88.8h10.1
		l-6.5,30.2h7.5l6.5-30.2h10.1l1.2-5.7h-27.7L308.4,88.8z M264.5,88.8h10.1l-6.5,30.2h7.5l6.5-30.2h10.1l1.2-5.7h-27.7L264.5,88.8z
		 M252.3,90.7c0,0.9-0.2,1.6-0.6,2.2c-0.4,0.6-0.9,1.2-1.5,1.6c-0.6,0.4-1.3,0.8-2,1.1c-0.7,0.3-1.4,0.5-2.1,0.7
		c-0.3-0.4-0.6-0.9-0.9-1.4c-0.3-0.5-0.5-1-0.7-1.6c-0.2-0.5-0.3-1.1-0.3-1.6c0-0.9,0.2-1.7,0.6-2.3c0.4-0.6,0.9-1.1,1.6-1.4
		c0.7-0.3,1.4-0.5,2.3-0.5c0.6,0,1.2,0.1,1.7,0.3c0.5,0.2,1,0.5,1.3,1C252.1,89.3,252.3,89.9,252.3,90.7z M249.5,112.5
		c-0.5,0.4-1.1,0.7-1.8,1c-0.7,0.3-1.4,0.5-2.1,0.6c-0.7,0.1-1.4,0.2-2.2,0.2c-0.9,0-1.7-0.1-2.4-0.3c-0.8-0.2-1.4-0.5-2-0.9
		c-0.6-0.4-1-0.9-1.4-1.6c-0.3-0.7-0.5-1.5-0.5-2.4c0-0.9,0.2-1.7,0.5-2.4c0.3-0.7,0.8-1.2,1.4-1.7c0.6-0.5,1.2-0.9,1.9-1.3
		c0.7-0.4,1.4-0.7,2.2-0.9L249.5,112.5z M253.8,119.1h7.7l-4.2-6.1c1.2-1.2,2.2-2.5,3-4c0.8-1.4,1.5-3,2-4.6
		c0.5-1.6,0.9-3.2,1.1-4.9h-6.3c0,1-0.2,2.1-0.5,3.1c-0.3,1-0.6,2-1.1,2.9c-0.5,0.9-1,1.8-1.6,2.7l-5.2-7.5c1.2-0.4,2.4-0.9,3.5-1.5
		c1.1-0.6,2.1-1.3,3-2c0.9-0.8,1.6-1.7,2.1-2.8c0.5-1.1,0.8-2.3,0.8-3.7c0-1.1-0.2-2.1-0.6-3c-0.4-0.9-1-1.6-1.6-2.3
		c-0.7-0.7-1.5-1.2-2.3-1.6c-0.9-0.4-1.7-0.7-2.7-0.9c-0.9-0.2-1.8-0.3-2.7-0.3c-1.4,0-2.7,0.2-4,0.6c-1.3,0.4-2.4,0.9-3.4,1.7
		c-1,0.8-1.8,1.7-2.4,2.8c-0.6,1.1-0.9,2.5-0.9,4c0,1,0.1,2,0.3,2.7c0.2,0.8,0.5,1.4,0.9,2.1c0.4,0.6,0.8,1.3,1.3,1.9
		c-1.3,0.4-2.6,0.9-3.8,1.6s-2.2,1.4-3.1,2.4c-0.9,0.9-1.6,2-2.2,3.2c-0.5,1.2-0.8,2.5-0.8,4c0,1.4,0.2,2.7,0.7,3.8
		c0.5,1.1,1.1,2.1,1.9,2.9c0.8,0.8,1.7,1.5,2.8,2c1.1,0.5,2.2,0.9,3.4,1.1c1.2,0.2,2.5,0.4,3.7,0.4c0.8,0,1.7-0.1,2.6-0.2
		c0.9-0.1,1.8-0.3,2.7-0.5c0.9-0.2,1.7-0.5,2.5-0.8c0.8-0.3,1.4-0.7,2-1.1L253.8,119.1z M205.7,119.1h21.2l1.2-5.7h-14.1l6.4-30.2
		h-7.2L205.7,119.1z"/>
</g>
</svg>
